<?xml version="1.0"?>
<svg xmlns="http://www.w3.org/2000/svg" xmlns:xlink="http://www.w3.org/1999/xlink" xmlns:svgjs="http://svgjs.com/svgjs" version="1.1" width="512" height="512" x="0" y="0" viewBox="0 0 127.908 127.908" style="enable-background:new 0 0 512 512" xml:space="preserve" class=""><circle r="63.954" cx="63.954" cy="63.954" fill="#fffcfc" shape="circle"/><g transform="matrix(0.8600000000000001,0,0,0.8599999999999999,8.953607634901992,13.953657932281573)">
<g xmlns="http://www.w3.org/2000/svg">
	<g>
		<path style="" d="M99.064,27.247c-9.237-2.673-18.445,2.316-21.512,10.035C74.23,45.624,79.57,56.4,77.337,61.54    c-3.174,7.308-12.372,18.513,0.215,25.965c11.635,6.886,20.034-3.94,26.122-13.65c4.653-7.43,9.495-14.963,11.399-22.797    C116.543,44.984,117.323,32.537,99.064,27.247z" fill="#24292e" data-original="#010002" class=""/>
		<path style="" d="M81.348,27.666c4.474,0,5.966-3.432,5.966-7.666c0-4.237-3.629-7.669-8.103-7.669    S71.113,15.763,71.113,20C71.113,24.234,76.878,27.666,81.348,27.666z" fill="#24292e" data-original="#010002" class=""/>
		<path style="" d="M95.775,24.345c3.704,0,6.71-5.075,6.71-9.144c0-4.073-3.003-5.597-6.71-5.597    c-3.704,0-6.707,1.528-6.707,5.597S92.071,24.345,95.775,24.345z" fill="#24292e" data-original="#010002" class=""/>
		<path style="" d="M114.653,23.983c2.09-2.566,0.977-5.068-1.356-6.972c-2.337-1.9-5.014-2.484-7.104,0.082    c-2.086,2.566-2.799,7.308-0.465,9.208C108.065,28.206,112.567,26.549,114.653,23.983z" fill="#24292e" data-original="#010002" class=""/>
		<path style="" d="M122.852,25.952c-1.886-2.083-4.27-2.995-6.564-0.927c-2.287,2.069-3.618,6.338-1.732,8.428    c1.886,2.083,6.27,1.188,8.561-0.88C125.408,30.504,124.735,28.042,122.852,25.952z" fill="#24292e" data-original="#010002" class=""/>
		<path style="" d="M127.58,38.023c-0.698-2.122-2.137-3.55-4.466-2.784c-2.33,0.769-4.67,3.439-3.973,5.565    c0.698,2.115,4.169,2.881,6.496,2.119C127.967,42.153,128.278,40.149,127.58,38.023z" fill="#24292e" data-original="#010002" class=""/>
		<path style="" d="M50.359,65.913c-3.067-7.716-12.279-12.708-21.512-10.035    c-18.259,5.29-17.479,17.737-16.005,23.807c1.9,7.834,6.746,15.368,11.399,22.797c6.088,9.713,14.487,20.535,26.122,13.65    c12.587-7.451,3.389-18.657,0.215-25.965C48.341,85.031,53.677,74.255,50.359,65.913z" fill="#24292e" data-original="#010002" class=""/>
		<path style="" d="M48.695,40.965c-4.474,0-8.103,3.432-8.103,7.669c0,4.234,1.492,7.666,5.966,7.666    s10.236-3.432,10.236-7.666C56.798,44.397,53.169,40.965,48.695,40.965z" fill="#24292e" data-original="#010002" class=""/>
		<path style="" d="M32.132,52.975c3.704,0,6.707-5.075,6.707-9.144c0-4.073-3.003-5.597-6.707-5.597    s-6.71,1.528-6.71,5.597C25.425,47.901,28.428,52.975,32.132,52.975z" fill="#24292e" data-original="#010002" class=""/>
		<path style="" d="M22.183,54.933c2.333-1.9,1.625-6.642-0.465-9.208c-2.09-2.57-4.771-1.986-7.104-0.082    c-2.333,1.904-3.446,4.406-1.356,6.972C15.344,55.18,19.846,56.837,22.183,54.933z" fill="#24292e" data-original="#010002" class=""/>
		<path style="" d="M11.622,53.655c-2.294-2.069-4.678-1.156-6.564,0.927c-1.886,2.09-2.555,4.552-0.265,6.624    c2.29,2.072,6.675,2.963,8.561,0.88C15.24,59.997,13.909,55.724,11.622,53.655z" fill="#24292e" data-original="#010002" class=""/>
		<path style="" d="M4.793,63.869c-2.33-0.766-3.769,0.666-4.466,2.784c-0.694,2.126-0.387,4.13,1.94,4.896    c2.326,0.762,5.801-0.004,6.496-2.119C9.464,67.309,7.123,64.635,4.793,63.869z" fill="#24292e" data-original="#010002" class=""/>
	</g>
</g>
<g xmlns="http://www.w3.org/2000/svg">
</g>
<g xmlns="http://www.w3.org/2000/svg">
</g>
<g xmlns="http://www.w3.org/2000/svg">
</g>
<g xmlns="http://www.w3.org/2000/svg">
</g>
<g xmlns="http://www.w3.org/2000/svg">
</g>
<g xmlns="http://www.w3.org/2000/svg">
</g>
<g xmlns="http://www.w3.org/2000/svg">
</g>
<g xmlns="http://www.w3.org/2000/svg">
</g>
<g xmlns="http://www.w3.org/2000/svg">
</g>
<g xmlns="http://www.w3.org/2000/svg">
</g>
<g xmlns="http://www.w3.org/2000/svg">
</g>
<g xmlns="http://www.w3.org/2000/svg">
</g>
<g xmlns="http://www.w3.org/2000/svg">
</g>
<g xmlns="http://www.w3.org/2000/svg">
</g>
<g xmlns="http://www.w3.org/2000/svg">
</g>
</g></svg>
